<svg width="600" height="600" xmlns="http://www.w3.org/2000/svg">
 <g>
  <title>Layer 1</title>
  <g stroke="null" id="svg_1" fill="white">
   <g stroke="null" id="svg_2" transform="translate(0 512) scale(0.1 -0.1)" fill="#000000">
    <path fill="#ffffff" stroke="#ffffff" id="svg_3" d="m2796.24409,5089.72602c-485.19415,-79.92925 -864.91132,-453.75221 -979.76404,-965.29941c-79.69373,-354.14806 -5.85983,-731.66006 196.89038,-1015.71632l62.11423,-86.07765l0,-383.6604c0,-361.52615 -1.17197,-388.57913 -24.6113,-453.75221c-14.0636,-39.34978 -42.1908,-88.53702 -62.11423,-110.67127c-21.0954,-23.36393 -185.17072,-122.96808 -398.46863,-243.47679l-362.13766,-204.12701l-94.92929,-7.37808c-329.3226,-24.59362 -604.73474,-157.39914 -814.51675,-392.26817c-257.83264,-290.20466 -371.5134,-675.09475 -311.7431,-1061.21451c107.82092,-694.76964 740.68286,-1162.04833 1400.50003,-1034.16153c473.47449,92.22606 850.84772,480.80518 953.98077,983.74462c5.85983,25.8233 49.2226,60.25436 223.84561,175.84435c229.70544,150.02105 284.78787,175.84435 391.43683,186.91148c98.44519,9.83745 150.01172,-12.29681 404.32846,-179.53339c186.34268,-121.7384 230.87741,-156.16946 236.73724,-183.22244c79.69373,-388.57913 322.2908,-715.67421 655.1293,-881.68112c127.74435,-63.9434 236.73724,-95.9151 386.74896,-115.58999c199.23431,-27.05298 275.41214,-3.68904 277.75607,86.07765c2.34393,62.71372 -33.98703,86.07765 -131.26025,86.07765c-90.24142,0 -254.31674,27.05298 -336.3544,56.56532c-343.3862,121.7384 -600.04687,426.69923 -679.7406,807.90027c-10.5477,54.10595 -28.1272,98.37446 -43.36276,114.36031c-39.84686,41.80915 -487.53809,327.09509 -563.71591,360.29647c-118.36862,50.41691 -325.8067,39.34978 -441.83139,-24.59362c-71.48996,-39.34978 -487.53809,-313.5686 -508.63348,-335.70285c-15.23557,-15.98585 -32.81506,-60.25436 -43.36276,-114.36031c-64.45816,-304.96083 -233.22134,-553.35635 -487.53809,-715.67421c-396.12469,-252.08456 -944.60504,-167.23659 -1262.20798,199.20829c-379.71716,435.30699 -360.9657,1088.26749 42.1908,1496.52151c185.17072,186.91148 399.64059,284.05626 673.88077,302.50147l117.19666,7.37808l392.6088,221.34254c232.04938,131.57584 410.18829,239.78775 437.14352,266.84073c55.08243,54.10595 105.47699,147.56169 131.26025,238.55807c16.40753,59.02468 18.75146,130.34616 15.23557,496.79103l-3.5159,427.92891l-67.97406,90.99638c-82.03766,109.44159 -152.35565,257.00328 -186.34268,388.57913c-35.159,137.72425 -35.159,388.57913 0,526.30337c146.49582,568.11252 636.37784,901.35601 1180.17032,801.75187c396.12469,-72.55117 707.8678,-378.74168 815.68872,-799.2925c36.33096,-138.95393 36.33096,-389.80881 0,-527.53305c-33.98703,-134.0352 -104.30502,-280.36722 -185.17072,-389.80881l-67.97406,-90.99638l-3.5159,-436.53668c-3.5159,-426.69923 -2.34393,-437.76636 23.43933,-510.31752c35.159,-98.37446 70.31799,-162.31786 118.36862,-215.19414c26.95523,-28.28266 180.48285,-121.7384 437.14352,-265.61105l397.29666,-223.8019l147.66779,-13.52649c274.24017,-24.59362 474.64645,-118.04935 656.30127,-307.42019c409.01633,-426.69923 399.64059,-1125.15791 -19.92343,-1537.10097c-93.75732,-93.45574 -172.27908,-146.33201 -304.7113,-210.27541c-112.50879,-54.10595 -134.77615,-84.84797 -111.33682,-146.33201c21.0954,-51.64659 65.63013,-67.63244 125.40042,-45.49819c303.53934,111.90095 574.26361,386.11976 700.836,708.29613c229.70544,589.01709 -4.68787,1270.26024 -543.79248,1577.68044c-152.35565,87.30734 -312.91507,134.0352 -510.97742,148.79137l-94.92929,7.37808l-362.13766,204.12701c-213.29791,120.50872 -377.37323,220.11286 -398.46863,243.47679c-19.92343,22.13425 -48.05063,71.32149 -62.11423,110.67127c-23.43933,65.17308 -24.6113,92.22606 -24.6113,453.75221l0,383.6604l63.28619,88.53702c271.89624,384.89008 302.36737,919.80122 76.17783,1342.81141c-87.89749,163.54754 -232.04938,333.24349 -363.30963,429.15859c-247.28494,177.07403 -581.29541,255.7736 -883.66278,206.58637z"/>
    <path fill="#ffffff" stroke="#ffffff" id="svg_4" d="m2872.42191,4712.21402c-275.41214,-38.1201 -510.97742,-218.88318 -632.86194,-484.49423c-214.46988,-469.73806 8.20377,-1024.32409 482.85022,-1195.24971c105.47699,-38.1201 298.85147,-51.64659 410.18829,-29.51234c303.53934,62.71372 550.82428,297.58275 641.0657,609.92167c39.84686,138.95393 41.01883,341.85126 2.34393,473.4271c-53.91046,184.45212 -145.32385,328.32477 -285.95984,446.37412c-168.76318,142.64297 -401.98453,210.27541 -617.62637,179.53339zm282.44394,-201.66765c110.16486,-33.20138 191.03055,-83.61829 281.27197,-178.30371c208.61005,-217.6535 254.31674,-511.5472 121.88452,-788.22538c-53.91046,-110.67127 -168.76318,-234.86903 -269.55231,-290.20466c-257.83264,-141.41329 -569.57574,-89.7667 -771.15399,129.11648c-233.22134,253.31424 -247.28494,629.59656 -35.159,905.04505c155.87155,204.12701 432.45566,295.12339 672.7088,222.57222z"/>
    <path fill="#ffffff" stroke="#ffffff" id="svg_5" d="m2912.26878,4332.24266c-125.40042,-18.44521 -246.11298,-102.0635 -315.259,-215.19414c-152.35565,-248.39552 -63.28619,-571.80156 191.03055,-698.45868c71.48996,-35.66074 87.89749,-39.34978 195.71841,-39.34978c108.99289,0 123.05649,2.45936 193.37448,39.34978c185.17072,95.9151 290.64771,302.50147 259.00461,509.08784c-41.01883,264.38137 -271.89624,442.68508 -523.86905,404.56498zm188.68661,-209.04573c164.07532,-73.78085 217.98578,-312.33892 103.13306,-454.98189c-107.82092,-135.26489 -301.1954,-148.79137 -418.39206,-29.51234c-66.80209,67.63244 -82.03766,109.44159 -83.20963,215.19414c0,82.38861 3.5159,99.60414 35.159,153.7101c79.69373,134.0352 222.67365,179.53339 363.30963,115.58999z"/>
    <path fill="#ffffff" stroke="#ffffff" id="svg_6" d="m2837.26292,2321.71459c-127.74435,-29.51234 -261.34854,-106.98223 -357.4498,-207.81605c-141.80795,-147.56169 -207.43808,-308.64987 -208.61005,-515.23625c-2.34393,-177.07403 43.36276,-325.86541 142.97992,-463.58965c260.17657,-361.52615 760.60629,-397.18689 1068.8335,-75.01053c151.18369,158.62882 217.98578,340.62158 207.43808,569.3422c-5.85983,124.19776 -48.05063,277.90786 -89.06946,319.717c-29.29916,30.74202 -90.24142,31.9717 -120.71255,2.45936c-29.29916,-28.28266 -25.78326,-83.61829 11.71967,-194.28956c32.81506,-97.14478 32.81506,-238.55807 0,-341.85126c-76.17783,-239.78775 -274.24017,-391.03849 -508.63348,-391.03849c-151.18369,0 -285.95984,61.48404 -391.43683,178.30371c-200.40628,222.57222 -195.71841,569.3422 9.37573,780.84729c173.45105,177.07403 412.53223,217.6535 625.83014,104.52287c44.53473,-23.36393 92.58536,-43.03883 108.99289,-43.03883c69.14603,0 101.96109,105.75255 49.2226,156.16946c-108.99289,104.52287 -372.68536,162.31786 -548.48035,120.50872z"/>
    <path fill="#ffffff" stroke="#ffffff" id="svg_7" d="m1050.01392,1221.15029c-171.10712,-33.20138 -317.60294,-115.58999 -446.51926,-252.08456c-77.34979,-81.15893 -105.47699,-122.96808 -150.01172,-216.42382c-71.48996,-151.25074 -92.58536,-260.69232 -85.55356,-429.15859c9.37573,-225.03158 93.75732,-421.78051 244.94101,-575.4906c75.00586,-77.46989 106.64896,-100.83382 208.61005,-154.93978c132.43222,-71.32149 199.23431,-87.30734 369.16946,-86.07765c132.43222,0 164.07532,4.91872 246.11298,33.20138c281.27197,98.37446 487.53809,333.24349 557.85608,635.74496c19.92343,86.07765 19.92343,293.89371 0,381.20104c-22.26736,97.14478 -107.82092,277.90786 -169.93515,359.06679c-97.27322,127.8868 -264.86444,241.01743 -423.07993,286.51562c-85.55356,23.36393 -270.72427,33.20138 -351.58997,18.44521zm346.9021,-212.73477c101.96109,-38.1201 167.59122,-79.92925 236.73724,-148.79137c160.55942,-163.54754 234.39331,-403.33529 191.03055,-622.21847c-108.99289,-548.43763 -751.23056,-741.49751 -1111.02429,-333.24349c-240.25314,271.75945 -232.04938,680.01347 18.75146,940.70579c92.58536,97.14478 194.54645,157.39914 315.259,186.91148c101.96109,24.59362 251.97281,14.75617 349.24603,-23.36393z"/>
    <path fill="#ffffff" stroke="#ffffff" id="svg_8" d="m1092.20472,838.71957c-112.50879,-23.36393 -240.25314,-120.50872 -301.1954,-227.49094c-46.87866,-83.61829 -66.80209,-172.15531 -60.94226,-276.67817c11.71967,-202.89733 139.46402,-370.13391 328.15063,-430.38827c214.46988,-68.86212 450.03516,41.80915 544.96445,255.7736c127.74435,290.20466 -35.159,619.75911 -336.3544,680.01347c-70.31799,13.52649 -101.96109,13.52649 -174.62302,-1.22968zm167.59122,-184.45212c243.76904,-71.32149 289.47574,-413.17274 71.48996,-545.97826c-118.36862,-73.78085 -263.69247,-46.72787 -357.4498,65.17308c-182.82678,217.6535 19.92343,558.27507 285.95984,480.80518z"/>
    <path fill="#ffffff" stroke="#ffffff" id="svg_9" d="m4625.68388,1213.77221c-268.38034,-62.71372 -467.61465,-229.95031 -581.29541,-488.18327c-24.6113,-55.33563 -51.56653,-131.57584 -59.77029,-168.46627c-19.92343,-87.30734 -19.92343,-293.89371 0,-381.20104c70.31799,-302.50147 276.58411,-537.3705 557.85608,-635.74496c82.03766,-28.28266 113.68076,-33.20138 246.11298,-33.20138c169.93515,-1.22968 236.73724,14.75617 369.16946,86.07765c101.96109,54.10595 133.60419,77.46989 208.61005,154.93978c151.18369,153.7101 235.56528,350.45902 244.94101,575.4906c7.0318,168.46627 -14.0636,277.90786 -85.55356,429.15859c-98.44519,207.81605 -277.75607,367.67455 -494.56989,440.22572c-117.19666,39.34978 -291.81967,47.95755 -405.50043,20.90457zm301.1954,-183.22244c124.22845,-27.05298 225.01758,-86.07765 319.94687,-185.6818c201.57825,-209.04573 249.62888,-504.16912 126.57239,-775.92857c-99.61716,-220.11286 -307.05524,-365.21519 -543.79248,-381.20104c-522.69708,-34.43106 -869.59918,579.17965 -585.98328,1039.08026c152.35565,248.39552 412.53223,363.98551 683.2565,303.73115z"/>
    <path fill="#ffffff" stroke="#ffffff" id="svg_10" d="m4703.03367,838.71957c-187.51465,-38.1201 -335.18243,-200.43797 -365.65356,-400.87593c-52.73849,-344.31062 266.03641,-635.74496 583.63934,-533.68146c131.26025,41.80915 225.01758,126.65712 285.95984,258.23296c128.91632,277.90786 -37.50293,619.75911 -329.3226,677.55411c-71.48996,13.52649 -103.13306,13.52649 -174.62302,-1.22968zm215.64185,-205.35669c123.05649,-66.40276 182.82678,-216.42382 145.32385,-360.29647c-17.5795,-66.40276 -93.75732,-150.02105 -166.41925,-183.22244c-160.55942,-72.55117 -348.07407,31.9717 -384.40503,213.96446c-30.47113,152.48042 56.25439,304.96083 200.40628,350.45902c55.08243,17.21553 151.18369,7.37808 205.09415,-20.90457z"/>
   </g>
  </g>
 </g>

</svg>